<svg id="Group_1" data-name="Group 1" xmlns="http://www.w3.org/2000/svg" width="870.669" height="641.157" viewBox="0 0 870.669 641.157">
  <path id="Path_1" data-name="Path 1" d="M525.068,474.862a6.146,6.146,0,0,1-4.454-10.653l.421-1.674-.167-.4c-5.658-13.492-24.835-13.4-30.445.113-4.979,11.993-11.319,24.006-12.88,36.686a48.827,48.827,0,0,0,.857,16.793,195.758,195.758,0,0,1-17.807-81.3,188.945,188.945,0,0,1,1.172-21.078q.971-8.606,2.694-17.09a198.027,198.027,0,0,1,39.27-83.928,52.7,52.7,0,0,0,21.918-22.74A40.2,40.2,0,0,0,529.3,278.6c-1.067.14-4.023-16.111-3.219-17.108-1.487-2.256-4.148-3.378-5.773-5.58-8.077-10.951-19.2-9.039-25.014,5.842-12.41,6.263-12.53,16.651-4.915,26.641,4.844,6.356,5.51,14.956,9.761,21.76-.437.56-.892,1.1-1.329,1.662a199.3,199.3,0,0,0-20.8,32.956c1.652-12.908-.787-28.459-4.946-38.483-4.735-11.422-13.609-21.041-21.424-30.915-9.387-11.86-28.635-6.684-30.289,8.35q-.024.218-.047.437,1.741.982,3.409,2.085a8.337,8.337,0,0,1-3.361,15.171l-.17.026a82.945,82.945,0,0,0,2.186,12.4c-10.025,38.771,11.619,52.892,42.524,53.527.682.35,1.347.7,2.029,1.032a203.434,203.434,0,0,0-10.95,51.532,192.951,192.951,0,0,0,.14,31.154l-.053-.367a50.985,50.985,0,0,0-17.405-29.44c-13.394-11-32.317-15.054-46.767-23.9-6.956-4.257-15.869,1.244-14.655,9.309q.029.193.059.386a55.989,55.989,0,0,1,6.28,3.026q1.741.982,3.409,2.085a8.337,8.337,0,0,1-3.361,15.171l-.17.026-.35.053a83.02,83.02,0,0,0,15.271,23.912c6.269,33.846,33.193,37.057,61.993,27.2h.018a203.37,203.37,0,0,0,13.662,39.882h48.8c.175-.542.332-1.1.49-1.644a55.454,55.454,0,0,1-13.5-.8c3.621-4.443,7.242-8.921,10.863-13.364a3.034,3.034,0,0,0,.227-.262c1.837-2.274,3.691-4.53,5.528-6.8v0a81.221,81.221,0,0,0-2.38-20.691Z" transform="translate(-178.512 -140.304)" fill="#f2f2f2"/>
  <path id="Path_2" data-name="Path 2" d="M696.467,499.549a2.664,2.664,0,0,1-1.931-4.617l.183-.726-.073-.174a7.154,7.154,0,0,0-13.2.049c-2.158,5.2-4.906,10.406-5.583,15.9a21.164,21.164,0,0,0,.372,7.279,84.853,84.853,0,0,1-7.719-35.242,81.878,81.878,0,0,1,.508-9.137q.421-3.73,1.168-7.408a85.835,85.835,0,0,1,17.022-36.38,22.844,22.844,0,0,0,9.5-9.857,17.425,17.425,0,0,0,1.585-4.762c-.463.061-1.744-6.983-1.4-7.415-.645-.978-1.8-1.464-2.5-2.419-3.5-4.747-8.325-3.918-10.843,2.532-5.379,2.715-5.431,7.217-2.131,11.548,2.1,2.755,2.388,6.483,4.231,9.432-.19.243-.387.478-.576.72a86.394,86.394,0,0,0-9.017,14.285,35.912,35.912,0,0,0-2.144-16.681c-2.052-4.951-5.9-9.12-9.286-13.4-4.069-5.141-12.412-2.9-13.129,3.62q-.01.095-.02.189.755.426,1.478.9a3.614,3.614,0,0,1-1.457,6.576l-.074.011a35.954,35.954,0,0,0,.948,5.376c-4.346,16.806,5.036,22.927,18.432,23.2.3.152.584.3.88.447a88.177,88.177,0,0,0-4.747,22.337,83.637,83.637,0,0,0,.061,13.5l-.023-.159a22.1,22.1,0,0,0-7.544-12.761c-5.806-4.769-14.008-6.526-20.272-10.359A4.148,4.148,0,0,0,632.82,470q.013.084.026.167a24.268,24.268,0,0,1,2.722,1.312q.755.426,1.478.9a3.614,3.614,0,0,1-1.457,6.576l-.074.011-.152.023a35.986,35.986,0,0,0,6.619,10.365c2.717,14.671,14.388,16.063,26.871,11.79h.008a88.157,88.157,0,0,0,5.922,17.287h21.154c.076-.235.144-.478.212-.713a24.034,24.034,0,0,1-5.854-.349c1.57-1.926,3.139-3.867,4.709-5.793a1.319,1.319,0,0,0,.1-.114c.8-.986,1.6-1.964,2.4-2.949h0a35.211,35.211,0,0,0-1.032-8.969Z" transform="translate(-159.177 -128.308)" fill="#f2f2f2"/>
  <path id="Path_3" data-name="Path 3" d="M825.274,532.5a6.48,6.48,0,0,0-1.4-8.929,6.211,6.211,0,0,0-.879-.533l2.9-44.116-14.78,2.562,3.294,44.883a6.462,6.462,0,0,0,2.117,7.6,6.184,6.184,0,0,0,8.645-1.328Q825.226,532.57,825.274,532.5Z" transform="translate(-147.503 -123.809)" fill="#a0616a"/>
  <path id="Path_4" data-name="Path 4" d="M721.93,577.344h-9.9l-4.71-38.19h14.613Z" transform="translate(62.212 52.391)" fill="#a0616a"/>
  <path id="Path_5" data-name="Path 5" d="M918.05,743.29H887.6V742.9a11.851,11.851,0,0,1,11.85-11.851h0l5.562-4.219,10.377,4.22h2.658Z" transform="translate(-133.559 -103.226)" fill="#2f2e41"/>
  <path id="Path_6" data-name="Path 6" d="M700,562.585l-8.459,5.145-23.871-30.181,12.485-7.593Z" transform="translate(62.212 52.391)" fill="#a0616a"/>
  <path id="Path_7" data-name="Path 7" d="M901.44,726.845l-26.013,15.822-.2-.329a11.851,11.851,0,0,1,3.966-16.283h0l2.559-6.495,11.058-1.787,2.271-1.381Z" transform="translate(-133.559 -103.226)" fill="#2f2e41"/>
  <path id="Path_8" data-name="Path 8" d="M763.5,202.928H196.771a1,1,0,0,1,0-2H763.5a1,1,0,0,1,0,2Z" transform="translate(-195.771 -155.617)" fill="#e6e6e6"/>
  <path id="Path_9" data-name="Path 9" d="M646.427,339.084H311.619a10.344,10.344,0,0,0,0,20.688H646.427a10.344,10.344,0,1,0,0-20.688Z" transform="translate(-195.771 -138.697)" fill="#3f3d56"/>
  <path id="Path_10" data-name="Path 10" d="M536.427,281.084H432.619a10.344,10.344,0,0,0,0,20.688H536.427a10.344,10.344,0,0,0,0-20.688Z" transform="translate(-175.169 -144.046)" fill="#3f3d56"/>
  <ellipse id="Ellipse_1" data-name="Ellipse 1" cx="8.457" cy="8.645" rx="8.457" ry="8.645" transform="translate(20.899)" fill="#e6e6e6"/>
  <ellipse id="Ellipse_2" data-name="Ellipse 2" cx="8.457" cy="8.645" rx="8.457" ry="8.645" transform="translate(50.112)" fill="#e6e6e6"/>
  <ellipse id="Ellipse_3" data-name="Ellipse 3" cx="8.457" cy="8.645" rx="8.457" ry="8.645" transform="translate(79.326)" fill="#e6e6e6"/>
  <path id="Path_11" data-name="Path 11" d="M316.865,171.1a1,1,0,0,1-.715-.3l-5.706-5.833a1,1,0,0,1,0-1.4l5.706-5.833a1,1,0,1,1,1.43,1.4l-5.022,5.133,5.022,5.134a1,1,0,0,1-.715,1.7Z" transform="translate(-195.771 -155.617)" fill="#e6e6e6"/>
  <path id="Path_12" data-name="Path 12" d="M326.454,171.1a1,1,0,0,1-.715-1.7l5.021-5.134-5.021-5.133a1,1,0,1,1,1.43-1.4l5.706,5.833a1,1,0,0,1,0,1.4l-5.706,5.833A1,1,0,0,1,326.454,171.1Z" transform="translate(-195.771 -155.617)" fill="#e6e6e6"/>
  <path id="Path_13" data-name="Path 13" d="M712.963,156.618h-10.61a2.189,2.189,0,0,0-2.19,2.19v10.62a2.189,2.189,0,0,0,2.19,2.19h10.61a2.2,2.2,0,0,0,2.2-2.19v-10.62A2.2,2.2,0,0,0,712.963,156.618Z" transform="translate(-156.224 -155.617)" fill="#e6e6e6"/>
  <path id="Path_14" data-name="Path 14" d="M686.963,156.618h-10.61a2.189,2.189,0,0,0-2.19,2.19v10.62a2.189,2.189,0,0,0,2.19,2.19h10.61a2.2,2.2,0,0,0,2.2-2.19v-10.62A2.2,2.2,0,0,0,686.963,156.618Z" transform="translate(-158.262 -155.617)" fill="#e6e6e6"/>
  <path id="Path_15" data-name="Path 15" d="M737.463,157.118h-10.61a2.189,2.189,0,0,0-2.19,2.19v10.62a2.189,2.189,0,0,0,2.19,2.19h10.61a2.2,2.2,0,0,0,2.2-2.19v-10.62a2.2,2.2,0,0,0-2.2-2.19Z" transform="translate(-154.303 -155.617)" fill="#e6e6e6"/>
  <path id="Path_16" data-name="Path 16" d="M522.542,161.158h-84.81a2.67,2.67,0,1,0,0,5.34h84.81a2.67,2.67,0,1,0,0-5.34Z" transform="translate(-175.046 -155.617)" fill="#e6e6e6"/>
  <path id="Path_17" data-name="Path 17" d="M460.342,414.928h-84a15.5,15.5,0,1,0,0,31h84a15.5,15.5,0,0,0,0-31Z" transform="translate(-180.962 -131.26)" fill="#6c63ff"/>
  <path id="Path_18" data-name="Path 18" d="M601.342,414.928h-84a15.5,15.5,0,1,0,0,31h84a15.5,15.5,0,0,0,0-31Z" transform="translate(-168.313 -131.26)" fill="#fff"/>
  <path id="Path_19" data-name="Path 19" d="M601.342,446.928h-84a16.5,16.5,0,1,1,0-33h84a16.5,16.5,0,0,1,0,33Zm-84-31a14.5,14.5,0,1,0,0,29h84a14.5,14.5,0,0,0,0-29Z" transform="translate(-168.323 -131.267)" fill="#6c63ff"/>
  <path id="Path_20" data-name="Path 20" d="M763.5,520.187H196.771a1,1,0,0,1,0-2H763.5a1,1,0,0,1,0,2Z" transform="translate(-195.771 -123.244)" fill="#e6e6e6"/>
  <circle id="Ellipse_4" data-name="Ellipse 4" cx="10" cy="10" r="10" transform="translate(14 189.275)" fill="#e6e6e6"/>
  <circle id="Ellipse_5" data-name="Ellipse 5" cx="10" cy="10" r="10" transform="translate(535.136 112.827)" fill="#e6e6e6"/>
  <circle id="Ellipse_6" data-name="Ellipse 6" cx="10" cy="10" r="10" transform="translate(108 338.895)" fill="#e6e6e6"/>
  <path id="Path_21" data-name="Path 21" d="M219.818,387.412a69.254,69.254,0,0,1,39.731-16.885,68.3,68.3,0,0,1,58.7,25.664c1.182,1.5-.927,3.638-2.121,2.121a66.183,66.183,0,0,0-33.1-22.411,65.314,65.314,0,0,0-61.088,13.631c-1.444,1.271-3.574-.843-2.121-2.121Z" transform="translate(-195.771 -135.539)" fill="#3f3d56"/>
  <path id="Path_22" data-name="Path 22" d="M334.115,384.308l8.843,24.184a1.508,1.508,0,0,1-1.446,1.9l-28.29-2.016c-1.915-.136-1.93-3.138,0-3l28.29,2.016-1.446,1.9-8.843-24.184c-.664-1.816,2.234-2.6,2.893-.8Z" transform="translate(-195.771 -134.38)" fill="#3f3d56"/>
  <path id="Path_23" data-name="Path 23" d="M915.771,513.928s8.184,16.262,5,24,2.612,67.683-.694,70.342-5.433.531-.87,5.095,6.564-.436,5.564,6.564-7,96-7,96l-13.694.342s-17.306-43.341-14.306-73.342l-17.13-82.618s-2.469,14.72-2.669,18.169-2.2,4.449-3.2,4.449c-5,0-3.465-.89-2.732,4.055s-8.226,44.525-8.226,44.525l29.958,69.42-10,10-51.82-75.8-9.935-77.06s-2.755-7.732,0-7.937,4.314.669,3.534-2.268,15.221-51.937,15.221-51.937Z" transform="translate(-133.559 -103.226)" fill="#2f2e41"/>
  <path id="Path_24" data-name="Path 24" d="M920.771,515.928c-2.31,5.35-10.18.45-28,2-2.06.18-4.09.27-6.11.29-11.95.13-23.12-2.14-32.16-2.81-6.51-.49-11.92-.15-15.73,2.52-10,7-13.96-14.66-13.96-14.66a27.385,27.385,0,0,1,3.96-16.34c5-8,10.12-27.01,3-34s-7.88-17.99-5-21,12.34-63.2,11-73c-1.06-7.73,10.88-10.21,15.96-10.91,1.36-.19,2.23-.25,2.23-.25l11.81,2.16,17,3,13.69.26s.19.09.55.25a112.675,112.675,0,0,1,17.76,10.49c8.08,6.09,2.11,96.99,2.11,96.99s-1.11,27.07,4.89,33.01S923.081,510.578,920.771,515.928Z" transform="translate(-133.559 -131.488)" fill="#3f3d56"/>
  <path id="Path_25" data-name="Path 25" d="M861.771,353.743l-23,1s-31,62-27,66,8.086,1.729,3.043,6.865-10.043,3.135-7.043,7.135,7-.5,3,5.249-1.124,51.935-1.124,51.935h15.818s11.182-38.8,10.244-43.492-1.062-8.7,0-10.2S861.771,353.743,861.771,353.743Z" transform="translate(-145.32 -132.58)" fill="#3f3d56"/>
  <circle id="Ellipse_7" data-name="Ellipse 7" cx="23.056" cy="23.056" r="23.056" transform="translate(719.329 144.358)" fill="#a0616a"/>
  <path id="Path_26" data-name="Path 26" d="M893.911,330.178l-9.14,1.75s8.5-13.72,8-20-7.34-8.53-7.34-8.53-3.79.82-7.78,1.28a20.057,20.057,0,0,0-1.85-3.85,6.715,6.715,0,0,1-1.96,4.14,10.936,10.936,0,0,1-4.33-.5c-1.58-.72-1.55-1.97-1.03-3.14a41.624,41.624,0,0,0-14.82,4.07,40.9,40.9,0,0,1,.35-9.2c.22-.06.44-.13.66-.2a20.413,20.413,0,0,0,3.92-1.71,6.751,6.751,0,0,1-3.7-1.74c.84-2.46,2.18-4.59,4.29-5.63a15.815,15.815,0,0,1,13.13-.35s-4.89-3.57-3.09-5.03c.12.12.24.23.37.34.17.14.36.29.54.43,1.11.9,2.77-.37,2.99-1.73a4.611,4.611,0,0,1,.1-.51c.03-.14.07-.28.11-.41a3.416,3.416,0,0,1,.12-.34c3.33-.8,13.4,2.45,17.27,9.61C890.721,288.928,917.771,301.928,893.911,330.178Z" transform="translate(-133.559 -143.538)" fill="#3f3d56"/>
  <path id="Path_27" data-name="Path 27" d="M892.238,528.165a6.48,6.48,0,0,1,5.31-7.314,6.218,6.218,0,0,1,1.025-.074l17.486-40.606,12,9.006L904.7,527.644a6.462,6.462,0,0,1-5.343,5.8,6.184,6.184,0,0,1-7.094-5.116Q892.249,528.249,892.238,528.165Z" transform="translate(-133.559 -123.859)" fill="#a0616a"/>
  <path id="Path_28" data-name="Path 28" d="M894.271,363.743l23,1s34,58,30,62-8.086,1.729-3.043,6.865,10.043,3.135,7.043,7.135-7-.5-3,5.249-28.5,59.935-28.5,59.935l-14-7s13.624-35.8,14.562-40.492,1.062-8.7,0-10.2S894.271,363.743,894.271,363.743Z" transform="translate(-133.559 -131.201)" fill="#3f3d56"/>
  <path id="Path_29" data-name="Path 29" d="M899.011,353.438l-32.24,74.49-13.04-79.91c1.36-.19,2.23-.25,2.23-.25l5.55-10.78,31.79,1.65,5.16,14.55S898.651,353.278,899.011,353.438Z" transform="translate(-133.559 -136.53)" fill="#6c63ff"/>
  <path id="Path_30" data-name="Path 30" d="M886.661,519.218c-11.95.13-23.12-2.14-32.16-2.81l11.27-56.48Z" transform="translate(-133.559 -125.505)" fill="#6c63ff"/>
  <path id="Path_31" data-name="Path 31" d="M748.558,743.193a1.186,1.186,0,0,0,1.19,1.19h253.29a1.19,1.19,0,1,0,0-2.38H749.748a1.187,1.187,0,0,0-1.19,1.19Z" transform="translate(-133.559 -103.226)" fill="#ccc"/>
</svg>
