<svg xmlns="http://www.w3.org/2000/svg" width="77.84" height="83.24" viewBox="0 0 77.84 83.24">
  <g id="Group_5" data-name="Group 5" transform="translate(-14 -8)">
    <path id="Icon_awesome-link" data-name="Icon awesome-link" d="M49.655,30.141a25.928,25.928,0,0,1,.055,34.888c-.017.02-.036.041-.055.06L39.439,76.013a22.087,22.087,0,0,1-32.681,0,25.969,25.969,0,0,1,0-34.948L12.4,35.033a2.408,2.408,0,0,1,4.15,1.724,31.82,31.82,0,0,0,1.473,8.571,2.748,2.748,0,0,1-.575,2.7l-1.99,2.128a12.393,12.393,0,0,0-.176,16.576,10.465,10.465,0,0,0,15.557.083L41.055,55.893a12.284,12.284,0,0,0,0-16.555,11.592,11.592,0,0,0-1.572-1.393,2.656,2.656,0,0,1-1.056-2.049A6.727,6.727,0,0,1,40.2,31.049l3.2-3.423a2.325,2.325,0,0,1,3.129-.281,23.633,23.633,0,0,1,3.12,2.8ZM71.082,7.226a22.087,22.087,0,0,0-32.681,0L28.185,18.152c-.018.02-.038.041-.055.06A25.928,25.928,0,0,0,28.185,53.1a23.628,23.628,0,0,0,3.12,2.8,2.325,2.325,0,0,0,3.129-.281l3.2-3.423a6.727,6.727,0,0,0,1.778-4.846A2.656,2.656,0,0,0,38.357,45.3,11.591,11.591,0,0,1,36.785,43.9a12.284,12.284,0,0,1,0-16.555L47,16.423a10.465,10.465,0,0,1,15.557.083,12.392,12.392,0,0,1-.176,16.576l-1.99,2.128a2.748,2.748,0,0,0-.575,2.7,31.819,31.819,0,0,1,1.473,8.571,2.408,2.408,0,0,0,4.15,1.724l5.641-6.033a25.969,25.969,0,0,0,0-34.948Z" transform="translate(14 8)" fill="#4c3b7b"/>
  </g>
</svg>
