<svg xmlns="http://www.w3.org/2000/svg" width="269.574" height="419.714" viewBox="0 0 269.574 419.714">
  <g id="humaaans_standing-5" data-name="humaaans/standing-5" transform="translate(-51.956 -42.538)">
    <g id="humaaan-10" transform="translate(34 14)">
      <g id="Head_Front_Short-1" data-name="Head/Front/Short-1" transform="translate(84.439)">
        <g id="Head" transform="translate(56.316 32.33)">
          <path id="Path_32" data-name="Path 32" d="M8.617,35.97C3.811,30.329.559,23.416,1.1,15.67,2.668-6.648,33.736-1.739,39.779,9.526S45.1,49.363,37.294,51.377c-3.115.8-9.75-1.164-16.5-5.234l4.239,29.989H0Z" fill="#b28b67" fill-rule="evenodd"/>
        </g>
        <path id="Hair" d="M85.057,43.489c-3.4,1.9-5.814,5.46-8.724,10.13a6.258,6.258,0,0,0-6.66,10.3C68.225,65.965,66.6,68.1,64.743,70.3c-6.939-4.163-12.1-16.3-5.474-28.009,5.7-23.462,38-8.9,44.214-12.856C104.842,37.951,100.461,44.816,85.057,43.489Z" fill="#191847" fill-rule="evenodd"/>
      </g>
      <g id="Bottom_Standing_Baggy-Pants" data-name="Bottom/Standing/Baggy-Pants" transform="translate(0 199)">
        <path id="Leg" d="M139.748,0l51.187,129.556,34.331,109.528h13.557L186.338,0Z" fill="#997659" fill-rule="evenodd"/>
        <path id="Leg-2" data-name="Leg" d="M129.441,0c-.545,45.527-8.494,106.821-9.764,109.659q-1.271,2.838-87.685,72.178l9.337,9.992q101.961-59.451,106.68-67.38C152.727,116.52,168.088,43.555,180.421,0Z" fill="#b28b67" fill-rule="evenodd"/>
        <g id="Accessories_Shoe_Flat-Sneaker" data-name="Accessories/Shoe/Flat-Sneaker" transform="matrix(0.643, 0.766, -0.766, 0.643, 49.241, 159.333)">
          <path id="shoe" d="M2.793,26.492a22.392,22.392,0,0,0-1.75,6.991,52.33,52.33,0,0,0,.94,8.233H60.8q2.293-7.58-2.647-8.184T49.95,32.44L22.61,20.252a1.043,1.043,0,0,0-1.377.528l-.012.027L19.464,25.07A18.755,18.755,0,0,1,12.032,27.2a16.831,16.831,0,0,1-6.416-1.876h0A2.086,2.086,0,0,0,2.85,26.354Q2.819,26.422,2.793,26.492Z" fill="#e4e4e4" fill-rule="evenodd"/>
        </g>
        <g id="Accessories_Shoe_Flat-Sneaker-2" data-name="Accessories/Shoe/Flat-Sneaker" transform="translate(216.922 207.536)">
          <path id="shoe-2" data-name="shoe" d="M2.793,26.492a22.392,22.392,0,0,0-1.75,6.991,52.33,52.33,0,0,0,.94,8.233H60.8q2.293-7.58-2.647-8.184T49.95,32.44L22.61,20.252a1.043,1.043,0,0,0-1.377.528l-.012.027L19.464,25.07A18.755,18.755,0,0,1,12.032,27.2a16.831,16.831,0,0,1-6.416-1.876h0A2.086,2.086,0,0,0,2.85,26.354Q2.819,26.422,2.793,26.492Z" fill="#e4e4e4" fill-rule="evenodd"/>
        </g>
        <path id="Pant" d="M174.164,227.8l64.455-7L190.85,0H133.119Z" fill="#49a1a7" fill-rule="evenodd"/>
        <path id="Pant-2" data-name="Pant" d="M45.324,165.717,87.6,215.76q66.8-72.954,77.886-95.2T185.426,0H120.432q-4.833,86.483-6.516,90.507T45.324,165.717Z" fill="#59c5cc" fill-rule="evenodd"/>
      </g>
      <g id="Body_Turtle-Neck" data-name="Body/Turtle-Neck" transform="translate(18 87)">
        <path id="Skin" d="M215.843,99.393,246.492,129.1a93.035,93.035,0,0,1,21.921,12.519c1.281,1.536,2.675,4.477-3.351,3.161s-12.426-2.432-13.559-.484,2.2,4.931.112,7.48q-2.094,2.549-14.081-16.213l-31.871-18.67ZM65.967,72.507l23.692.088q-27.067,87.128-28.736,91.238c-2.5,6.164,2.794,15.553,5.06,20.6-7.379,3.281-6.593-8.869-15.9-4.566-8.5,3.927-14.959,11.043-24.776,5.025-1.207-.74-2.529-3.525.666-5.7,7.961-5.424,19.433-14.916,20.983-18.04Q50.125,154.757,65.967,72.507Z" fill="#b28b67" fill-rule="evenodd"/>
        <path id="Clothes-Back" d="M132.865,10.472l9.181-2.4c19.194,50.281,97.705,78.83,104.023,97.7,2.317,6.92-2.491,10.942.342,12.864l-11.344,9.871c-2.259-2.2-6.256,2.534-15.665.291S138.207,71.53,132.865,10.472Z" transform="translate(6.713 -16.28) rotate(5)" fill="#f1f1f1" fill-rule="evenodd"/>
        <path id="Clothes-Front" d="M153.9,12.613c-1.079,68.53,38.794,86.011,29.912,113.5-7.334,22.7-77.532,47.107-89.68,24.853-4.917-9.007-7.148-19.9-7.4-31.746q-4.657,13.648-7.366,23.5c-3.116,11.33-15.2,13.131-15.2,17.5l-15.915-4.365c1.079-5.929-6.423-8.817-4.412-22.065Q57.36,44.753,116.493,4.709l.417-5.923a4.184,4.184,0,0,1,4.455-3.872l29.453,2.046a4.167,4.167,0,0,1,3.873,4.447s0,0,0,0Z" fill="#fff" fill-rule="evenodd"/>
      </g>
    </g>
  </g>
</svg>
